<svg t="1578552733679" class="icon" viewBox="0 0 1158 1024" version="1.1" xmlns="http://www.w3.org/2000/svg" p-id="1712" width="16" height="16">
	<path d="M256.12288 60.138382c74.638222-0.682667 149.390222 0 224.069404-0.28672-17.708373 76.258418-34.697671 152.730738-52.337777 229.025565H86.926222c-10.777031 0-21.554062 0.359538-32.312889-0.432356 66.955947-76.294827 134.662827-151.943396 201.509547-228.306489zM635.189476 59.88352h223.423146c67.097031 76.367644 134.844871 152.08448 201.764409 228.5568-43.103573 0.910222-86.207147 0-129.31072 0.395947h-244.076089c-16.961991-76.399502-35.06176-152.512284-51.800746-228.952747z" fill="#F2E6C9" p-id="1713"></path><path d="M480.192284 59.88352h154.99264c16.738987 76.458667 34.806898 152.553244 51.882667 228.920889H427.859058c17.635556-76.222009 34.624853-152.662471 52.333226-228.920889z" fill="#EFC75E" p-id="1714"></path><path d="M54.613333 288.408462c10.777031 0.791893 21.554062 0.395947 32.312889 0.432356h340.932836q0 120.959431 0.250311 241.918862a87.640747 87.640747 0 0 0 9.193244 0.646258h242.210134a68.266667 68.266667 0 0 0 7.186204-0.500622c0.682667-80.713956 0-161.42336 0.323129-242.119112h244.076089c43.103573-0.213902 86.207147 0.500622 129.31072-0.395946V987.591111H54.649742Q54.613333 638.015716 54.613333 288.408462z" fill="#E7BF55" p-id="1715"></path><path d="M427.859058 288.913636h259.199431c-0.28672 80.713956 0.395947 161.42336-0.323129 242.119111-2.407538 0.250311-4.815076 0.432356-7.186204 0.500622H437.361778a87.640747 87.640747 0 0 1-9.161387-0.609849c-0.523378-80.73216-0.018204-161.409707-0.341333-242.009884z" fill="#DBB551" p-id="1716"></path><path d="M128.031858 760.144782h336.56832V889.742222H128.031858z" fill="#F2F2F2" p-id="1717"></path><path d="M761.987982 633.059556l95.414045-92.951894h236.999111l-209.947307 209.938205-122.465849-116.986311" fill="#40D0FD" p-id="1718"></path><path d="M464.604729 570.85952l119.1936 122.024391L1094.401138 178.05312h-236.999111l-392.797298 392.8064z" fill="#41D0FD" p-id="1719"></path><path d="M642.575929 751.233707l120.877511 119.093475 121.000391-120.281315-122.465849-116.986311-119.412053 118.174151z" fill="#1FBCFD" p-id="1720"></path><path d="M763.45344 870.327182l121.000391-120.281315 206.989085 209.355662h-238.328036l-89.66144-89.074347z" fill="#095A9D" p-id="1721"></path><path d="M763.45344 870.327182l112.72192-37.482951-37.983573-36.809387-74.738347 74.292338z" fill="#0E5199" p-id="1722"></path>
</svg>